<svg version="1.1" id="Layer_1" xmlns="http://www.w3.org/2000/svg" xmlns:xlink="http://www.w3.org/1999/xlink" x="0px" y="0px"
	 width="100%" viewBox="0 0 250 253" enable-background="new 0 0 250 253" xml:space="preserve">
<path fill="#FEFEFE" opacity="1.000000" stroke="none" 
	d="
M146.000000,254.000000 
	C98.500000,254.000000 51.499920,253.964615 4.500219,254.083313 
	C1.517198,254.090851 0.914307,253.482193 0.918032,250.499908 
	C1.020452,168.500046 1.020450,86.500000 0.918040,4.500126 
	C0.914315,1.517949 1.517758,0.914223 4.500080,0.918005 
	C85.499947,1.020706 166.499985,1.020701 247.499847,0.918020 
	C250.481995,0.914240 251.085709,1.517698 251.081985,4.500063 
	C250.979553,86.499931 250.979553,168.499969 251.081955,250.499832 
	C251.085678,253.481903 250.483856,254.096313 247.499725,254.084503 
	C213.833572,253.951096 180.166687,254.000000 146.000000,254.000000 
z"/>
<path fill="#121212" opacity="1.000000" stroke="none" 
	d="
M187.558914,126.028763 
	C185.503159,128.300201 187.181961,129.625504 188.302994,130.939789 
	C203.485657,148.739868 218.697357,166.515182 234.696228,185.225555 
	C227.138351,184.377151 220.541748,183.658264 213.950653,182.892288 
	C200.105682,181.283310 186.263184,179.652924 172.420547,178.023941 
	C168.298218,177.538818 164.105927,177.348831 160.080658,176.431396 
	C156.745575,175.671280 155.419510,176.779495 154.194962,179.732010 
	C145.039413,201.807159 135.724243,223.816101 126.278618,246.274857 
	C121.902809,235.340225 117.665306,224.641632 113.342232,213.977737 
	C108.572319,202.211624 103.680344,190.494873 98.947479,178.714050 
	C98.032715,176.437042 97.101875,175.318054 94.264542,175.667282 
	C71.060463,178.523361 47.833652,181.195404 24.609520,183.886856 
	C23.181120,184.052399 21.716845,183.908356 19.582365,183.908356 
	C26.748352,175.424515 33.504463,167.327087 40.369728,159.323303 
	C48.806511,149.487411 57.311367,139.709503 65.843079,129.955765 
	C67.478859,128.085678 67.836456,126.754990 65.963676,124.565475 
	C50.340778,106.300331 34.870571,87.904594 18.873947,68.980026 
	C26.480877,69.747238 33.587841,70.338165 40.661446,71.202202 
	C58.445587,73.374527 76.222229,75.613113 93.982956,77.967857 
	C97.265945,78.403114 98.096886,76.708260 99.129524,74.141716 
	C107.868439,52.421768 116.758057,30.762447 125.616837,9.090816 
	C125.733810,8.804646 126.038094,8.595046 126.515381,8.055076 
	C133.369278,23.977297 140.174683,39.731537 146.930359,55.507057 
	C149.787094,62.177933 152.681305,68.839172 155.276337,75.612869 
	C156.490326,78.781708 158.804977,78.111580 160.996078,77.878250 
	C174.522202,76.437820 188.038132,74.901817 201.559189,73.413567 
	C212.407791,72.219475 223.258850,71.048004 234.567001,69.816605 
	C218.782913,88.722198 203.316132,107.247734 187.558914,126.028763 
z"/>
<path fill="#FCFCFC" opacity="1.000000" stroke="none" 
	d="
M136.729553,108.662888 
	C133.866974,113.153038 131.234787,117.358566 127.992004,122.539642 
	C127.992004,86.865257 127.992004,52.070236 127.992004,17.078253 
	C130.884567,23.648842 133.860428,30.239183 136.697205,36.888859 
	C142.119873,49.600037 147.399033,62.372845 152.888535,75.054802 
	C154.139786,77.945488 153.928543,80.191025 152.236313,82.892281 
	C146.979080,91.284172 142.029114,99.868568 136.729553,108.662888 
z"/>
<path fill="#FDFDFD" opacity="1.000000" stroke="none" 
	d="
M127.801697,185.995605 
	C127.727478,167.599686 127.727478,149.700714 127.727478,130.513947 
	C131.675507,136.880814 135.025299,142.184799 138.276123,147.548798 
	C142.987305,155.322464 147.490524,163.226608 152.380707,170.884644 
	C153.835953,173.163559 153.877930,175.008774 152.930634,177.269745 
	C144.791275,196.696396 136.676620,216.133392 127.875916,235.558228 
	C127.875916,219.203003 127.875916,202.847794 127.801697,185.995605 
z"/>
<path fill="#FCFCFC" opacity="1.000000" stroke="none" 
	d="
M125.111298,56.999241 
	C125.158119,78.626572 125.158119,99.754044 125.158119,122.136444 
	C120.084251,113.647774 115.605583,106.074921 111.044724,98.551895 
	C107.872505,93.319412 104.619011,88.135269 101.337189,82.970604 
	C100.015793,80.891113 99.617043,79.104774 100.676559,76.529099 
	C108.636459,57.178474 116.356224,37.729069 125.064484,18.350197 
	C125.064484,31.066589 125.064484,43.782986 125.111298,56.999241 
z"/>
<path fill="#FCFCFC" opacity="1.000000" stroke="none" 
	d="
M121.753716,228.297119 
	C114.613846,210.882004 107.695625,193.798172 100.687721,176.751221 
	C100.008652,175.099365 99.629158,173.660187 100.597916,172.068344 
	C108.453384,159.160400 116.303864,146.249420 125.011894,133.526413 
	C125.011894,167.239349 125.011894,200.952271 125.011894,234.665192 
	C124.791771,234.716873 124.571640,234.768555 124.351517,234.820221 
	C123.551140,232.759705 122.750771,230.699188 121.753716,228.297119 
z"/>
<path fill="#FAFAFA" opacity="1.000000" stroke="none" 
	d="
M145.492554,105.222046 
	C143.869064,105.441284 142.685028,106.416771 141.195145,105.372879 
	C145.824600,97.757256 150.435867,90.154305 155.069580,82.565063 
	C155.884552,81.230293 157.021652,80.510010 158.691711,80.325737 
	C180.592987,77.909103 202.486847,75.425331 224.668427,73.609886 
	C217.679153,77.385918 210.708450,81.196846 203.695831,84.929008 
	C195.239517,89.429497 186.749527,93.866737 178.270264,98.324036 
	C174.539337,100.285271 170.411484,100.669228 166.349213,101.374969 
	C159.516022,102.562088 152.708023,103.894348 145.492554,105.222046 
z"/>
<path fill="#FBFBFB" opacity="1.000000" stroke="none" 
	d="
M75.291122,97.886002 
	C60.099079,89.788139 45.262558,81.839417 29.839405,73.576408 
	C33.611946,72.043724 36.927261,73.096634 40.137119,73.482590 
	C57.943737,75.623672 75.730438,77.930984 93.540146,80.044968 
	C96.061996,80.344299 97.698784,81.090355 99.070358,83.410912 
	C103.488258,90.885551 108.212303,98.179237 113.387321,106.452354 
	C100.065887,103.575218 87.500809,102.486847 75.291122,97.886002 
z"/>
<path fill="#FBFBFB" opacity="1.000000" stroke="none" 
	d="
M112.043716,147.809845 
	C108.239632,156.323120 102.984818,163.745605 98.382484,171.550201 
	C97.706032,172.697311 96.845169,173.186279 95.632423,173.326965 
	C73.360962,175.910339 51.089718,178.495636 28.564486,180.388031 
	C38.222157,175.295502 47.876831,170.197266 57.539188,165.113647 
	C60.753002,163.422775 64.125504,161.989914 67.186829,160.060486 
	C79.768394,152.130814 94.370224,151.241867 108.303894,148.016724 
	C109.109131,147.830338 109.900795,147.585327 111.106789,147.366089 
	C111.679810,147.425735 111.844818,147.486893 112.043716,147.809845 
z"/>
<path fill="#FBFBFB" opacity="1.000000" stroke="none" 
	d="
M189.125366,161.867126 
	C200.619751,168.005096 211.775696,173.990524 224.156189,180.632965 
	C218.125290,181.720810 213.666092,180.400345 209.228210,179.909073 
	C192.240295,178.028549 175.279282,175.905762 158.303467,173.913925 
	C157.046112,173.766388 156.084641,173.352707 155.439209,172.263458 
	C150.981949,164.741119 146.524551,157.218887 141.190140,148.216492 
	C157.855423,153.342117 174.563187,152.770950 189.125366,161.867126 
z"/>
<path fill="#FBFBFB" opacity="1.000000" stroke="none" 
	d="
M224.749741,77.249771 
	C211.697128,93.431221 198.518295,109.249466 185.411896,125.127525 
	C184.355133,126.407784 183.352844,127.022751 181.675552,127.006340 
	C173.899918,126.930222 166.123108,126.972687 156.781860,126.972687 
	C167.324966,116.446899 172.440231,102.956703 185.959564,96.634926 
	C198.655228,90.698311 210.809662,83.604279 223.558151,76.963562 
	C224.156754,76.905731 224.399460,76.903854 224.749741,77.249771 
z"/>
<path fill="#FAFAFA" opacity="1.000000" stroke="none" 
	d="
M36.297371,167.309723 
	C46.876083,155.155746 57.282688,143.321426 67.487595,131.315659 
	C69.385208,129.083191 71.245247,128.061676 74.161987,128.131226 
	C81.284142,128.301041 88.413071,128.186615 95.855080,128.772324 
	C87.541466,138.009354 82.924110,150.084305 70.825821,155.927628 
	C56.490616,162.851379 42.616947,170.730682 27.877850,177.541779 
	C30.603779,174.217926 33.329708,170.894058 36.297371,167.309723 
z"/>
<path fill="#FBFBFB" opacity="1.000000" stroke="none" 
	d="
M28.972059,75.670975 
	C43.683060,83.249771 57.972740,90.932457 72.295708,98.552574 
	C76.457451,100.766708 78.640381,104.803078 81.482430,108.215935 
	C86.125328,113.791359 90.599564,119.507240 95.617645,125.752121 
	C86.965843,126.819809 78.948120,126.146355 70.957787,125.940178 
	C69.015205,125.890045 68.146523,123.724693 67.015472,122.392143 
	C54.233597,107.333115 41.538971,92.200020 28.609020,76.826935 
	C28.452528,76.295067 28.507975,76.023048 28.972059,75.670975 
z"/>
<path fill="#FAFAFA" opacity="1.000000" stroke="none" 
	d="
M224.768021,178.507507 
	C209.436417,170.385132 194.361694,162.146759 179.291092,153.900848 
	C175.664719,151.916672 173.781006,148.225510 171.142242,145.306107 
	C166.632324,140.316513 162.545380,134.944580 157.848694,129.205215 
	C166.403519,129.205215 174.291931,129.251648 182.179138,129.173737 
	C184.245209,129.153320 184.973358,130.730682 185.989380,131.906860 
	C199.009842,146.979614 211.987198,162.089600 225.070465,177.513687 
	C225.119080,178.021072 225.072739,178.204910 224.768021,178.507507 
z"/>
<path fill="#F6F6F6" opacity="1.000000" stroke="none" 
	d="
M142.963211,126.976318 
	C138.840958,126.982269 135.199966,126.982269 130.278183,126.982269 
	C135.546539,122.749611 141.078323,121.124214 145.777298,118.148636 
	C146.562500,117.651421 147.271622,118.651863 147.758469,119.292343 
	C149.521088,121.611198 151.235062,123.967010 153.456726,126.970367 
	C149.595978,126.970367 146.520218,126.970367 142.963211,126.976318 
z"/>
<path fill="#ECECEC" opacity="1.000000" stroke="none" 
	d="
M116.494003,122.558388 
	C118.607231,123.776344 120.408386,124.781700 123.436371,126.471848 
	C115.121460,126.471848 108.224915,126.471848 101.362320,126.471848 
	C101.271332,125.867950 101.079094,125.456917 101.204514,125.300354 
	C107.216850,117.795189 107.219933,117.797661 116.494003,122.558388 
z"/>
<path fill="#F5F5F5" opacity="1.000000" stroke="none" 
	d="
M138.187347,110.295441 
	C142.685547,109.130096 142.480423,113.577652 144.387085,115.435165 
	C145.199753,116.226883 142.847977,117.349701 141.618347,117.994934 
	C138.210739,119.783051 134.811447,121.586967 130.673920,122.581230 
	C133.111923,118.585571 135.549942,114.589920 138.187347,110.295441 
z"/>
<path fill="#F5F5F5" opacity="1.000000" stroke="none" 
	d="
M132.779999,134.279938 
	C132.052216,133.159042 131.529770,132.344025 131.007309,131.529022 
	C131.161316,131.274612 131.315323,131.020218 131.469330,130.765808 
	C135.714401,132.975693 140.590179,134.496872 143.999588,137.619247 
	C146.600845,140.001495 142.167801,142.144333 140.900558,144.265549 
	C139.493362,146.621048 138.601929,144.006424 137.969055,143.017517 
	C136.210327,140.269333 134.633820,137.404541 132.779999,134.279938 
z"/>
<path fill="#F0F0F0" opacity="1.000000" stroke="none" 
	d="
M118.236542,114.687653 
	C119.758759,117.750549 122.161369,119.916962 123.231941,124.028511 
	C118.557426,121.437523 114.649345,119.246643 110.715683,117.102692 
	C109.053001,116.196472 109.325775,115.246132 110.411377,114.056808 
	C111.743095,112.597847 112.978081,111.050591 114.406273,109.362564 
	C116.489555,110.485176 116.867699,112.731995 118.236542,114.687653 
z"/>
<path fill="#F7F7F7" opacity="1.000000" stroke="none" 
	d="
M148.456512,128.994415 
	C149.990936,129.335190 153.067825,128.007446 150.874802,131.174637 
	C148.735184,134.264679 146.916565,138.113571 142.062012,134.127274 
	C139.724655,132.207962 136.634827,131.205017 133.860291,128.995102 
	C138.579941,128.995102 143.299576,128.995102 148.456512,128.994415 
z"/>
<path fill="#F7F7F7" opacity="1.000000" stroke="none" 
	d="
M106.261917,134.689499 
	C104.563644,132.887283 103.124092,131.347702 101.051186,129.130768 
	C107.663696,129.130768 113.501030,129.130768 120.374657,129.130768 
	C115.857559,131.634659 112.220764,133.636627 108.599785,135.666794 
	C107.594528,136.230392 107.117149,135.467346 106.261917,134.689499 
z"/>
<path fill="#EEEEEE" opacity="1.000000" stroke="none" 
	d="
M116.083908,134.114655 
	C118.053757,133.289719 119.329231,131.719086 122.014984,132.145950 
	C119.678658,136.192383 117.476440,140.006546 115.254623,143.854660 
	C108.202934,138.420181 108.216553,138.223434 116.083908,134.114655 
z"/>
<path fill="#FBFBFB" opacity="1.000000" stroke="none" 
	d="
M28.646706,76.326782 
	C28.005472,76.151855 27.613861,75.736626 27.222250,75.321404 
	C27.794825,75.272537 28.367399,75.223663 29.160336,75.382858 
	C29.219244,75.756104 29.057787,75.921295 28.646706,76.326782 
z"/>
<path fill="#FBFBFB" opacity="1.000000" stroke="none" 
	d="
M224.140381,77.093086 
	C224.248978,76.111725 224.778610,75.691605 225.610580,76.192352 
	C225.697632,76.244743 225.434113,76.879646 225.095276,77.420929 
	C224.693787,77.491249 224.530243,77.384911 224.140381,77.093086 
z"/>
<path fill="#FBFBFB" opacity="1.000000" stroke="none" 
	d="
M111.642876,147.551376 
	C111.894356,147.330963 112.273911,147.297363 112.653465,147.263763 
	C112.630493,147.486984 112.607529,147.710205 112.331078,148.002533 
	C112.077599,148.071625 111.770950,147.738190 111.642876,147.551376 
z"/>
<path fill="#FAFAFA" opacity="1.000000" stroke="none" 
	d="
M224.991104,178.025864 
	C225.394928,178.131500 225.624420,178.425766 225.853928,178.720032 
	C225.574631,178.789398 225.295334,178.858780 224.762833,178.777222 
	C224.612015,178.489014 224.714401,178.351746 224.991104,178.025864 
z"/>
</svg>